# xmcd
#
# Track frame offsets: 
#        150
#        15896
#        27820
#        41609
#        54389
#        64821
#        81789
#        95529
#        107807
#        120080
#        130493
#        145643
#        156288
#        171436
#        181819
#        192835
#        203083
#        221587
#
# Disc length: 3108 seconds
#
# Revision: 0
# Processed by: cddbd v1.5.1PL0 Copyright (c) Steve Scherf et al.
# Submitted via: ExactAudioCopy v0.95a5
#
DISCID=ec0c2212
DTITLE=Various Artist - Mighty Rhythm For Boogie Jumpers
DYEAR=1900
DGENRE=Blues
TTITLE0=Chartreuse
TTITLE1=Indigo Swing - Swing Lover
TTITLE2=Natural Born Lover
TTITLE3=I'm Gonna Rock
TTITLE4=Mighty Blue Kings - Baby Drives Me Wild
TTITLE5=I Want A Big Fat Mama
TTITLE6=Route 66
TTITLE7=Razzle Dazzle
TTITLE8=Hop Skip And Jump
TTITLE9=Tennessee Saturday Night
TTITLE10=Jump Up Boogie
TTITLE11=Indigo Swing - Pink Cadillac
TTITLE12=Blues Jumpers - Wheels Start Turning
TTITLE13=The Treniers - Go Go Go
TTITLE14=Sam Butera and The Witnesses - Dig That Crazy Chick
TTITLE15=Kansas City Boogie
TTITLE16=Mighty Blue Kings - Jumpin' At The Green Mill
TTITLE17=Cold Shower
EXTD=
EXTT0=
EXTT1=
EXTT2=
EXTT3=
EXTT4=
EXTT5=
EXTT6=
EXTT7=
EXTT8=
EXTT9=
EXTT10=
EXTT11=
EXTT12=
EXTT13=
EXTT14=
EXTT15=
EXTT16=
EXTT17=
PLAYORDER=
